<?xml version="1.0" standalone="no"?>
<!DOCTYPE svg PUBLIC "-//W3C//DTD SVG 20010904//EN"
 "http://www.w3.org/TR/2001/REC-SVG-20010904/DTD/svg10.dtd">
<svg version="1.0" xmlns="http://www.w3.org/2000/svg"
 width="900.000000pt" height="315.000000pt" viewBox="0 0 900.000000 315.000000"
 preserveAspectRatio="xMidYMid meet">
<metadata>
Created by potrace 1.10, written by Peter Selinger 2001-2011
</metadata>
<g transform="translate(0.000000,315.000000) scale(0.100000,-0.100000)"
fill="#bababa" stroke="none">
<path d="M1700 2550 c-25 -5 -70 -9 -100 -10 -30 0 -66 -7 -80 -15 -14 -8 -38
-15 -55 -15 -16 0 -39 -7 -49 -15 -11 -8 -30 -15 -42 -15 -12 0 -27 -7 -34
-15 -7 -8 -20 -15 -30 -15 -10 0 -23 -7 -30 -15 -7 -8 -19 -15 -27 -15 -8 0
-32 -13 -53 -30 -21 -16 -43 -30 -49 -30 -5 0 -59 -48 -119 -107 -103 -101
-202 -228 -202 -257 0 -8 -7 -19 -15 -26 -8 -7 -15 -20 -15 -30 0 -10 -7 -23
-15 -30 -8 -7 -15 -22 -15 -34 0 -12 -7 -31 -15 -42 -8 -10 -15 -32 -15 -47 0
-15 -7 -44 -15 -64 -8 -19 -15 -61 -15 -92 -1 -31 -7 -73 -14 -94 -13 -34 -12
-38 6 -48 10 -6 36 -9 56 -7 l37 3 5 87 c3 50 10 92 18 100 6 6 12 30 12 53 0
22 7 49 15 59 8 11 15 27 15 35 0 21 62 144 78 154 6 4 12 16 12 25 0 9 15 34
33 54 17 21 52 60 76 88 40 47 145 136 196 167 47 29 162 83 176 83 8 0 24 7
35 15 10 8 33 15 49 15 17 0 41 7 55 15 37 21 356 21 407 0 19 -8 50 -15 68
-15 18 0 38 -7 45 -15 7 -8 20 -15 29 -15 9 0 50 -18 91 -40 41 -22 85 -44 98
-49 12 -6 22 -15 22 -21 0 -5 4 -10 9 -10 27 0 231 -204 231 -231 0 -5 4 -9 9
-9 10 0 21 -17 59 -97 13 -26 30 -61 38 -76 8 -16 14 -37 14 -48 0 -15 7 -19
33 -19 17 0 42 -3 54 -6 31 -8 41 20 19 56 -9 16 -16 35 -16 43 0 8 -7 20 -15
27 -8 7 -15 20 -15 30 0 10 -7 23 -15 30 -8 7 -15 19 -15 27 0 8 -13 32 -29
52 -15 20 -30 41 -32 48 -5 14 -83 107 -124 148 -70 69 -215 175 -240 175 -7
0 -18 7 -25 15 -7 8 -20 15 -30 15 -10 0 -23 7 -30 15 -7 8 -22 15 -34 15 -12
0 -31 7 -42 15 -10 8 -32 15 -47 15 -15 0 -40 6 -55 14 -15 7 -65 16 -112 20
-47 3 -105 8 -130 10 -25 3 -65 1 -90 -4z"/>
<path d="M1700 2340 c-8 -5 -37 -10 -65 -10 -62 0 -156 -29 -250 -77 -81 -42
-105 -56 -105 -62 0 -3 -17 -17 -37 -31 -60 -40 -82 -61 -131 -125 -25 -33
-50 -63 -55 -66 -17 -12 -107 -201 -107 -225 0 -14 -6 -35 -14 -47 -8 -12 -17
-64 -21 -114 l-7 -93 45 0 c44 0 45 1 51 38 3 20 6 57 6 82 0 25 7 54 15 64 8
11 15 30 15 42 0 12 7 35 14 51 8 15 18 35 21 43 16 40 91 148 137 198 43 47
110 103 138 115 8 4 29 16 45 27 17 11 37 22 45 26 8 3 29 11 45 18 73 31 106
39 196 48 105 11 259 0 319 -22 42 -16 99 -40 120 -51 80 -42 100 -55 136 -85
83 -67 193 -202 194 -237 1 -7 9 -22 19 -34 15 -18 30 -23 66 -23 46 0 47 0
40 28 -3 15 -20 48 -36 75 -16 26 -29 52 -29 57 0 5 -6 13 -13 17 -8 4 -24 23
-38 42 -43 62 -63 82 -124 129 -33 26 -65 52 -72 58 -7 7 -32 22 -55 33 -24
12 -50 26 -58 30 -61 33 -81 41 -102 41 -13 0 -29 5 -36 12 -20 20 -288 45
-312 28z"/>
<path d="M1670 2135 c-14 -8 -41 -14 -61 -15 -19 0 -44 -7 -55 -15 -10 -8 -29
-15 -40 -15 -12 0 -27 -7 -34 -15 -7 -8 -20 -15 -30 -15 -10 0 -20 -7 -24 -15
-3 -8 -12 -15 -19 -15 -37 0 -217 -205 -217 -246 0 -8 -7 -17 -15 -20 -8 -4
-15 -16 -15 -28 0 -12 -6 -30 -14 -41 -7 -11 -16 -41 -20 -67 -3 -27 -9 -68
-12 -93 l-6 -45 56 0 56 0 0 68 c1 43 6 74 15 86 8 11 15 30 15 42 0 13 4 25
9 28 5 4 19 25 30 49 22 46 94 125 156 172 37 27 65 43 150 80 76 34 285 34
360 1 103 -46 127 -60 171 -98 27 -24 54 -50 60 -58 45 -58 60 -68 112 -72 72
-7 75 7 19 80 -66 85 -151 158 -224 191 -11 5 -24 15 -28 20 -3 6 -16 11 -28
11 -12 0 -31 7 -41 15 -11 8 -36 15 -55 15 -20 1 -47 7 -61 15 -16 9 -54 14
-105 14 -51 0 -89 -5 -105 -14z"/>
<path d="M4272 2007 c-31 -33 -28 -70 9 -101 17 -14 37 -26 44 -26 27 0 75 51
75 78 -1 66 -83 97 -128 49z"/>
<path d="M3756 1955 c-11 -8 -32 -15 -47 -15 -15 0 -29 -7 -33 -15 -3 -8 -13
-15 -22 -15 -26 0 -99 -80 -119 -130 -3 -8 -13 -28 -21 -43 -20 -40 -20 -200
1 -217 8 -7 15 -23 15 -36 0 -13 4 -24 9 -24 5 0 12 -9 16 -19 8 -25 83 -101
100 -101 7 0 18 -7 25 -15 7 -8 23 -15 36 -15 13 0 44 -7 69 -16 43 -14 52
-14 118 2 40 10 79 24 88 31 8 7 20 13 26 13 16 0 113 111 113 129 0 9 7 25
15 35 10 13 15 44 15 88 l0 68 -152 0 c-84 0 -163 3 -175 6 -18 5 -25 1 -33
-22 -6 -16 -9 -38 -5 -51 5 -23 6 -23 124 -16 78 4 120 2 124 -5 27 -42 -69
-164 -140 -176 -92 -17 -154 -5 -210 41 -24 19 -43 40 -43 47 0 8 -6 19 -14
25 -8 7 -17 33 -20 59 -15 118 -4 160 58 227 34 37 59 55 74 55 13 0 37 8 53
17 25 15 33 16 62 4 17 -7 43 -16 56 -19 14 -3 43 -25 65 -49 39 -43 41 -44
95 -41 81 4 80 24 -6 107 -76 73 -116 90 -233 97 -48 3 -70 0 -84 -11z"/>
<path d="M1670 1923 c-99 -34 -170 -76 -223 -132 -76 -79 -108 -147 -124 -264
l-5 -38 53 3 54 3 3 54 c3 44 11 66 48 122 24 38 58 75 73 84 16 8 31 18 33
22 5 13 65 43 84 43 10 0 37 7 61 16 39 15 46 15 92 0 27 -9 58 -16 67 -16 10
0 25 -6 33 -14 18 -16 153 -27 173 -15 10 7 7 14 -12 32 -14 13 -32 26 -40 30
-8 4 -22 11 -30 16 -107 64 -247 86 -340 54z"/>
<path d="M6015 1823 c-11 -2 -32 -18 -47 -35 -33 -38 -65 -35 -60 5 3 26 2 27
-47 27 l-51 0 0 -265 0 -265 43 0 c65 0 68 7 60 137 -6 107 4 199 26 243 12
23 72 50 106 47 30 -2 30 -2 30 53 0 58 -8 65 -60 53z"/>
<path d="M4279 1818 c0 -5 -1 -501 0 -515 1 -9 17 -13 46 -13 29 0 45 4 46 13
0 6 0 125 0 262 l1 250 -46 3 c-25 2 -46 2 -47 0z"/>
<path d="M4601 1789 c-51 -36 -80 -68 -81 -90 0 -8 -7 -24 -15 -35 -23 -30
-20 -170 4 -225 25 -55 88 -118 138 -137 60 -23 119 -26 145 -8 12 9 28 16 35
16 6 0 24 11 39 25 41 38 49 28 46 -56 -2 -73 -3 -74 -45 -111 -38 -34 -47
-38 -99 -38 -64 0 -116 24 -137 64 -10 18 -24 25 -55 28 -58 6 -69 1 -62 -34
3 -15 11 -35 18 -44 30 -37 74 -74 88 -74 8 0 24 -7 34 -15 14 -11 46 -15 108
-15 98 0 145 18 202 76 52 54 58 96 60 417 l1 288 -55 -3 c-52 -3 -55 -5 -58
-30 -4 -35 -13 -35 -54 2 -31 29 -36 30 -123 30 -84 -1 -93 -3 -134 -31z m264
-105 l45 -46 0 -81 c0 -79 -1 -83 -33 -117 -32 -34 -94 -70 -122 -70 -24 0
-90 38 -117 68 -61 65 -56 186 11 254 34 36 39 37 104 38 68 0 68 0 112 -46z"/>
<path d="M5241 1786 c-57 -41 -79 -74 -100 -152 -36 -134 31 -286 149 -333 72
-29 174 -13 230 36 35 31 44 29 50 -9 5 -31 8 -33 48 -36 23 -2 42 0 42 5 1 4
2 124 3 266 l2 257 -47 0 c-47 0 -48 -1 -48 -30 0 -21 -5 -30 -16 -30 -9 0
-33 14 -54 30 -36 28 -43 30 -126 29 -84 0 -92 -2 -133 -33z m257 -87 c37 -36
72 -109 72 -148 0 -15 -7 -36 -15 -47 -8 -10 -15 -26 -15 -35 0 -30 -98 -99
-140 -99 -37 0 -130 61 -130 85 0 7 -7 18 -15 25 -11 9 -15 32 -15 80 0 48 4
71 15 80 8 7 15 18 15 24 0 6 14 23 32 38 29 24 42 27 99 28 60 0 68 -3 97
-31z"/>
<path d="M6290 1811 c0 -5 -10 -13 -22 -16 -28 -9 -98 -84 -98 -106 0 -8 -7
-24 -15 -35 -23 -31 -20 -158 6 -212 23 -47 99 -132 119 -132 7 0 27 -7 46
-16 37 -18 104 -15 167 7 45 16 118 82 135 121 15 36 -6 48 -68 39 -33 -4 -47
-12 -56 -29 -13 -27 -74 -62 -107 -62 -35 0 -98 36 -117 67 -20 34 -30 111
-23 175 4 37 13 55 41 83 34 33 39 35 103 35 66 0 69 -1 94 -34 21 -27 34 -35
68 -38 23 -3 48 -3 55 0 23 8 6 57 -31 94 -61 60 -85 68 -196 68 -56 0 -101
-4 -101 -9z"/>
<path d="M6850 1805 c-7 -8 -18 -15 -24 -15 -18 0 -77 -74 -94 -118 -23 -57
-27 -176 -8 -204 9 -12 16 -30 16 -39 0 -23 94 -119 116 -119 11 -1 30 -7 44
-15 14 -8 39 -14 56 -15 36 0 125 36 137 56 13 22 37 16 47 -11 10 -26 42 -39
81 -33 l24 3 3 263 2 262 -55 0 c-54 0 -55 0 -55 -30 0 -20 -5 -30 -15 -30 -9
0 -29 14 -45 30 -28 29 -32 30 -123 30 -72 0 -98 -4 -107 -15z m238 -115 c30
-31 41 -51 47 -86 15 -100 -22 -178 -101 -214 -53 -24 -51 -24 -106 0 -81 36
-116 107 -102 210 5 41 14 58 46 90 39 39 42 40 108 40 66 0 69 -1 108 -40z"/>
<path d="M7400 1818 c-1 -5 -1 -502 -1 -516 1 -9 15 -12 49 -10 l47 3 0 170
c0 177 3 193 48 243 17 19 31 22 88 22 66 0 69 -1 96 -35 28 -35 28 -36 33
-217 l5 -183 46 -3 c29 -2 50 2 56 10 11 14 1 335 -12 396 -5 22 -24 47 -58
77 l-52 45 -87 0 c-48 0 -89 -4 -93 -9 -3 -6 -18 -16 -34 -24 -28 -14 -30 -14
-35 9 -6 21 -12 24 -51 24 -25 0 -45 -1 -45 -2z"/>
<path d="M2069 1695 c-8 -7 23 -70 48 -97 16 -18 31 -19 263 -18 135 1 253 1
263 1 15 -1 17 -12 17 -92 0 -52 -5 -100 -12 -112 -7 -12 -15 -47 -19 -77 -8
-72 -33 -134 -118 -298 -23 -45 -248 -262 -271 -262 -11 0 -23 -7 -26 -15 -4
-8 -14 -15 -24 -15 -10 0 -23 -7 -30 -15 -7 -8 -20 -15 -29 -15 -10 0 -26 -7
-37 -15 -10 -8 -32 -15 -48 -15 -16 0 -38 -8 -48 -17 -17 -15 -44 -17 -216
-17 -166 0 -202 3 -229 17 -18 9 -43 17 -56 17 -14 0 -30 7 -37 15 -7 8 -21
15 -30 15 -17 0 -78 28 -90 41 -3 3 -23 16 -45 29 -43 25 -255 232 -255 249 0
5 -13 30 -30 54 -16 25 -30 50 -30 57 0 7 -6 24 -14 38 -24 47 -38 95 -48 161
-5 36 -14 73 -19 82 -5 10 -9 34 -9 53 0 35 -1 36 -39 36 -26 0 -41 -5 -45
-16 -10 -25 -7 -103 4 -124 6 -11 13 -46 17 -79 3 -34 12 -66 19 -72 8 -6 14
-24 14 -39 0 -15 7 -33 15 -40 8 -7 15 -20 15 -29 1 -9 12 -34 25 -56 14 -22
28 -47 32 -55 27 -61 247 -290 278 -290 8 0 18 -6 22 -13 4 -7 29 -24 55 -36
27 -13 50 -27 54 -32 3 -5 15 -9 27 -9 12 0 31 -7 41 -15 11 -8 31 -15 45 -15
14 0 35 -7 45 -15 11 -8 35 -15 53 -15 18 0 73 -7 122 -15 79 -14 97 -14 176
0 48 8 102 15 119 15 18 0 41 7 52 15 10 8 30 15 42 15 13 0 36 6 50 14 15 7
50 24 77 36 28 13 64 33 82 46 17 13 35 24 39 24 34 0 274 253 274 288 0 5 7
12 15 16 8 3 15 13 15 23 0 10 7 27 15 37 8 11 15 27 15 37 0 9 7 22 15 29 8
7 15 24 15 39 0 14 7 35 15 45 8 11 15 36 15 55 1 20 7 54 15 76 21 58 20 266
-1 322 l-17 43 -281 -1 c-155 0 -299 2 -321 6 -22 4 -43 4 -46 0z"/>
<path d="M1009 1483 c-4 -43 5 -141 17 -168 8 -19 14 -47 14 -63 0 -16 7 -35
15 -42 8 -7 15 -20 15 -29 1 -9 12 -34 25 -56 14 -22 29 -51 35 -64 13 -29
182 -201 198 -201 7 0 12 -4 12 -8 0 -4 25 -20 55 -36 30 -15 57 -32 60 -37 4
-5 18 -9 33 -9 15 0 36 -7 46 -15 11 -8 33 -15 49 -15 15 0 50 -7 77 -16 76
-25 276 -7 353 32 16 8 35 14 43 14 14 0 65 26 119 61 17 10 37 22 45 26 24
10 185 175 201 205 16 30 53 107 74 153 8 17 17 49 20 72 4 24 11 45 16 49 5
3 9 38 9 77 l0 72 -383 0 -382 0 0 -55 0 -55 325 -1 325 -1 -3 -48 c-2 -27
-10 -58 -18 -69 -8 -11 -14 -28 -14 -37 0 -9 -7 -22 -15 -29 -8 -7 -15 -19
-15 -27 0 -37 -193 -243 -228 -243 -5 0 -15 -7 -22 -15 -7 -8 -20 -15 -30 -15
-10 0 -23 -7 -30 -15 -7 -8 -22 -15 -34 -15 -12 0 -33 -8 -46 -17 -21 -16 -49
-18 -195 -18 -146 0 -174 2 -195 18 -13 9 -34 17 -46 17 -12 0 -27 7 -34 15
-7 8 -20 15 -30 15 -10 0 -23 7 -30 15 -7 8 -17 15 -22 15 -10 0 -48 29 -106
80 -39 34 -122 145 -122 163 0 8 -7 20 -15 27 -8 7 -15 23 -15 35 0 12 -7 28
-15 35 -8 7 -15 28 -15 46 0 18 -7 52 -16 74 -9 22 -14 53 -12 69 3 23 0 31
-16 35 -30 8 -76 7 -77 -1z"/>
<path d="M1227 1473 c-13 -12 -7 -108 8 -133 8 -14 14 -37 15 -51 0 -15 6 -32
14 -38 8 -7 17 -23 20 -36 4 -14 11 -25 16 -25 6 0 10 -5 10 -11 0 -36 182
-198 223 -199 7 0 21 -7 31 -15 11 -8 30 -15 42 -15 12 0 38 -7 57 -15 46 -19
169 -19 222 0 22 8 48 15 57 15 33 0 152 70 221 130 52 45 142 181 129 195 -3
3 -27 5 -53 5 -44 0 -49 -3 -70 -37 -29 -47 -119 -143 -135 -143 -6 0 -17 -7
-24 -15 -7 -8 -20 -15 -30 -15 -10 0 -23 -7 -30 -15 -7 -8 -26 -15 -42 -15
-16 0 -45 -7 -65 -15 -19 -8 -50 -15 -68 -15 -18 0 -49 7 -68 15 -20 8 -47 15
-60 15 -13 0 -44 11 -68 25 -24 14 -51 28 -59 32 -32 15 -121 109 -141 150
-11 24 -25 45 -30 49 -5 3 -9 17 -9 32 -1 15 -7 38 -15 52 -8 14 -14 42 -15
63 0 36 -1 37 -38 37 -21 0 -42 -3 -45 -7z"/>
<path d="M6848 1169 c-26 -15 -22 -38 8 -45 32 -8 53 10 38 33 -14 22 -25 25
-46 12z"/>
<path d="M5985 1158 c-3 -8 -4 -72 -3 -143 l3 -129 65 -3 c88 -4 105 1 129 43
34 56 24 103 -31 157 -18 19 -83 23 -93 7 -13 -21 -24 -8 -27 32 -2 31 -8 44
-21 46 -9 2 -19 -3 -22 -10z m136 -118 c28 -16 27 -84 -3 -104 -31 -22 -43
-20 -73 9 -31 32 -32 49 0 80 26 27 46 31 76 15z"/>
<path d="M7197 1164 c-4 -4 -7 -67 -7 -140 0 -138 5 -153 45 -138 13 5 15 28
13 143 -3 128 -4 136 -23 139 -12 2 -24 0 -28 -4z"/>
<path d="M6615 1142 c-38 -20 -49 -30 -69 -69 -20 -40 -20 -71 0 -113 30 -59
52 -74 120 -78 61 -4 63 -3 98 34 26 28 36 47 36 70 0 18 -4 35 -8 38 -4 2
-36 8 -71 12 -62 7 -63 7 -59 -17 2 -20 9 -24 38 -24 28 0 36 -4 38 -22 4 -28
-41 -53 -81 -46 -63 12 -90 107 -44 151 27 26 84 29 113 7 20 -15 60 -20 67
-7 8 12 -25 47 -62 65 -41 20 -76 20 -116 -1z"/>
<path d="M6222 1102 c-13 -9 -8 -31 23 -97 49 -107 52 -129 19 -163 -17 -17
-18 -46 -1 -60 18 -15 53 17 62 56 3 17 11 34 16 37 5 4 9 14 9 23 0 9 14 44
31 77 43 84 50 111 33 126 -24 20 -41 3 -60 -61 -10 -34 -25 -65 -32 -68 -16
-6 -31 14 -32 43 -1 25 -32 88 -45 92 -5 1 -16 -1 -23 -5z"/>
<path d="M7010 1102 c-52 -23 -80 -62 -80 -112 0 -73 54 -116 131 -104 31 5
39 3 39 -9 0 -42 -66 -62 -106 -32 -26 20 -54 19 -54 -2 0 -26 11 -37 49 -56
43 -21 65 -21 99 0 50 31 52 39 52 175 0 106 -3 130 -15 134 -8 4 -21 1 -28
-5 -8 -6 -17 -7 -23 -2 -14 14 -47 20 -64 13z m68 -68 c13 -9 22 -26 22 -41 0
-31 -36 -73 -62 -73 -52 0 -82 101 -35 120 33 13 50 12 75 -6z"/>
<path d="M7360 1103 c-29 -11 -69 -62 -75 -96 -5 -25 -1 -46 14 -74 23 -46 35
-53 96 -53 45 0 85 27 85 57 0 18 -38 16 -56 -2 -31 -31 -95 -7 -80 30 4 11
22 15 76 15 l70 0 0 29 c0 32 -36 76 -75 91 -29 11 -33 11 -55 3z m63 -61 c22
-24 13 -32 -40 -32 -46 0 -55 13 -25 36 24 19 46 17 65 -4z"/>
<path d="M7577 1092 c-44 -29 -56 -53 -57 -107 0 -40 5 -56 26 -78 24 -27 29
-28 102 -24 l77 4 3 106 c2 84 0 107 -11 107 -7 0 -18 -5 -23 -10 -7 -7 -20
-6 -40 5 -37 19 -43 19 -77 -3z m93 -64 c25 -27 25 -43 -1 -79 -25 -36 -53
-37 -84 -3 -31 33 -31 51 -3 81 27 29 61 29 88 1z"/>
<path d="M7790 1100 c-21 -13 0 -46 28 -43 30 4 35 -24 9 -60 -12 -18 -25 -34
-29 -37 -3 -3 -10 -18 -14 -34 -9 -37 6 -46 79 -46 44 0 59 4 64 16 8 21 -16
36 -45 29 -37 -9 -37 20 2 71 22 28 36 58 36 75 0 27 -3 29 -37 29 -21 0 -47
3 -58 5 -11 3 -27 1 -35 -5z"/>
<path d="M6848 1098 c0 -2 -2 -48 -3 -103 -2 -98 2 -114 33 -115 9 0 12 29 12
110 0 103 -1 110 -20 110 -11 0 -21 -1 -22 -2z"/>
</g>
</svg>
