<?xml version="1.0" standalone="no"?>
<!DOCTYPE svg PUBLIC "-//W3C//DTD SVG 20010904//EN"
 "http://www.w3.org/TR/2001/REC-SVG-20010904/DTD/svg10.dtd">
<svg version="1.0" xmlns="http://www.w3.org/2000/svg"
 width="300.000000pt" height="138.000000pt" viewBox="0 0 300.000000 138.000000"
 preserveAspectRatio="xMidYMid meet">
<metadata>
Created by potrace 1.10, written by Peter Selinger 2001-2011
</metadata>
<g transform="translate(0.000000,138.000000) scale(0.100000,-0.100000)"
fill="#aeadad" stroke="none">
<path d="M550 1111 c-82 -26 -118 -48 -183 -109 -68 -65 -110 -135 -132 -217
-21 -83 -20 -125 4 -125 15 0 21 -12 30 -61 15 -88 53 -162 116 -228 92 -96
200 -138 337 -128 154 10 283 101 351 245 29 61 32 76 32 165 l0 97 -146 3
-146 2 10 -22 c10 -22 16 -23 129 -23 l118 0 0 -38 c0 -21 -7 -65 -16 -97 -63
-244 -326 -360 -547 -243 -101 54 -178 165 -193 276 -5 44 -4 52 9 52 19 0 37
30 37 62 0 42 56 142 104 186 69 63 125 85 221 86 67 1 89 -3 136 -25 67 -32
128 -84 154 -133 14 -25 26 -36 42 -36 31 0 29 9 -15 74 -46 69 -127 131 -199
152 -82 24 -202 16 -275 -18 -114 -53 -203 -174 -215 -293 -5 -50 -8 -55 -30
-55 -23 0 -24 2 -18 43 19 125 71 219 162 293 79 64 149 88 263 88 116 0 179
-22 264 -91 49 -40 123 -138 138 -185 2 -5 14 -8 26 -6 l22 3 -29 62 c-54 114
-162 207 -282 244 -78 24 -204 24 -279 0z"/>
<path d="M587 936 c-101 -36 -187 -151 -187 -248 0 -27 -3 -30 -25 -26 -30 6
-30 2 -10 -77 67 -260 391 -341 569 -144 48 53 86 139 86 192 l0 32 -165 0
c-164 0 -165 0 -165 -22 0 -22 3 -23 144 -25 l144 -3 -19 -51 c-76 -204 -338
-254 -483 -93 -64 71 -100 189 -58 189 14 0 23 -14 35 -57 20 -73 66 -129 131
-159 116 -54 254 -12 315 96 22 39 22 40 2 40 -11 0 -42 -22 -68 -48 -109
-109 -257 -83 -327 55 -23 45 -21 71 6 75 16 2 24 12 29 35 15 74 89 130 158
119 143 -24 162 -17 79 25 -53 27 -154 24 -195 -7 -48 -36 -84 -90 -90 -133
-5 -36 -9 -42 -27 -39 -17 2 -21 9 -18 37 4 47 48 126 89 157 101 77 240 66
327 -25 26 -27 76 -43 76 -25 0 22 -70 87 -122 113 -50 25 -73 31 -127 31 -36
-1 -83 -7 -104 -14z"/>
<path d="M1701 880 c-19 -11 -9 -45 14 -45 13 0 21 8 23 21 3 23 -17 37 -37
24z"/>
<path d="M2020 734 c0 -137 1 -144 20 -144 19 0 20 7 20 139 0 130 -1 139 -20
144 -19 5 -20 0 -20 -139z"/>
<path d="M1473 845 c-67 -29 -94 -126 -53 -192 45 -75 148 -84 207 -19 24 26
33 45 33 71 l0 35 -70 0 c-63 0 -70 -2 -70 -20 0 -17 7 -20 50 -20 l51 0 -15
-29 c-26 -48 -87 -56 -133 -17 -23 20 -28 32 -28 71 0 39 5 51 28 71 35 30 87
32 112 4 10 -11 31 -20 47 -20 28 0 28 1 13 24 -33 50 -110 68 -172 41z"/>
<path d="M2390 802 c-79 -12 -106 -127 -45 -188 29 -29 89 -33 117 -7 17 15
18 15 18 0 0 -11 8 -17 23 -17 21 0 22 3 22 105 0 102 -1 105 -22 105 -13 0
-23 -4 -23 -9 0 -6 -14 -4 -32 3 -18 7 -44 10 -58 8z m68 -52 c40 -37 23 -111
-28 -121 -49 -9 -90 44 -71 93 18 48 63 61 99 28z"/>
<path d="M1690 695 c0 -102 1 -105 23 -105 21 0 22 3 22 105 0 102 -1 105 -22
105 -22 0 -23 -3 -23 -105z"/>
<path d="M1804 785 c-78 -54 -38 -195 56 -195 21 0 43 7 50 15 7 8 16 15 21
15 10 0 0 -60 -14 -77 -13 -18 -72 -16 -87 2 -7 8 -23 15 -36 15 -21 0 -22 -2
-13 -24 14 -29 48 -46 95 -46 84 0 104 38 104 195 l0 115 -25 0 c-19 0 -23 -4
-18 -17 6 -16 5 -16 -17 0 -30 21 -88 22 -116 2z m106 -35 c24 -24 26 -77 3
-102 -20 -22 -61 -23 -85 -1 -39 35 -10 123 42 123 11 0 29 -9 40 -20z"/>
<path d="M2127 780 c-29 -23 -43 -74 -33 -116 18 -71 116 -99 170 -49 14 13
26 28 26 34 0 12 -38 2 -68 -17 -27 -18 -64 -5 -82 28 -10 19 -8 20 75 20 47
0 85 3 85 8 0 29 -24 84 -43 97 -31 22 -99 19 -130 -5z m105 -27 c32 -28 22
-39 -37 -39 -58 1 -65 8 -38 38 20 22 51 23 75 1z"/>
<path d="M2553 788 c1 -8 23 -15 50 -18 l48 -5 -48 -70 c-68 -100 -67 -105 23
-105 69 0 74 2 74 21 0 19 -5 21 -45 17 -25 -2 -45 -1 -45 2 0 3 20 34 45 69
65 93 62 101 -30 101 -55 0 -74 -3 -72 -12z"/>
</g>
</svg>
